<svg width="406" height="406" viewBox="0 0 406 406" fill="none" xmlns="http://www.w3.org/2000/svg">
<path d="M351.537 203C351.537 285.035 285.034 351.537 203 351.537C120.965 351.537 54.4634 285.035 54.4634 203C54.4634 120.966 120.965 54.4634 203 54.4634C285.034 54.4634 351.537 120.966 351.537 203ZM67.2375 203C67.2375 277.98 128.02 338.762 203 338.762C277.979 338.762 338.762 277.98 338.762 203C338.762 128.02 277.979 67.2376 203 67.2376C128.02 67.2376 67.2375 128.02 67.2375 203Z" fill="#475569" fill-opacity="0.45"/>
<path d="M222.467 350.255C215.226 351.213 207.924 351.634 200.622 351.518L200.813 339.547C207.527 339.654 214.241 339.266 220.898 338.386L222.467 350.255Z" fill="#85B1FB"/>
<path d="M377 203C377 299.098 299.098 377 203 377C106.902 377 29 299.098 29 203C29 106.902 106.902 29 203 29C299.098 29 377 106.902 377 203ZM43.964 203C43.964 290.833 115.167 362.036 203 362.036C290.833 362.036 362.036 290.833 362.036 203C362.036 115.167 290.833 43.964 203 43.964C115.167 43.964 43.964 115.167 43.964 203Z" fill="#475569" fill-opacity="0.45"/>
<path d="M304.445 344.368C281.204 361.045 254.21 371.736 225.852 375.493L223.887 360.658C249.806 357.225 274.479 347.454 295.721 332.21L304.445 344.368Z" fill="#89FFF2"/>
<path d="M326.073 203C326.073 270.971 270.971 326.073 203 326.073C135.028 326.073 79.9268 270.971 79.9268 203C79.9268 135.029 135.028 79.9268 203 79.9268C270.971 79.9268 326.073 135.029 326.073 203ZM92.6033 203C92.6033 263.97 142.03 313.397 203 313.397C263.97 313.397 313.397 263.97 313.397 203C313.397 142.03 263.97 92.6034 203 92.6034C142.03 92.6034 92.6033 142.03 92.6033 203Z" fill="#475569" fill-opacity="0.45"/>
<path d="M200.184 326.041C191.965 325.853 183.784 324.842 175.766 323.022L178.571 310.66C185.764 312.292 193.101 313.199 200.474 313.368L200.184 326.041Z" fill="#9AE6FF"/>
<path d="M300.61 203C300.61 256.908 256.908 300.61 203 300.61C149.092 300.61 105.39 256.908 105.39 203C105.39 149.092 149.092 105.39 203 105.39C256.908 105.39 300.61 149.092 300.61 203ZM118.079 203C118.079 249.9 156.1 287.92 203 287.92C249.9 287.92 287.92 249.9 287.92 203C287.92 156.1 249.9 118.08 203 118.08C156.1 118.08 118.079 156.1 118.079 203Z" fill="#475569" fill-opacity="0.45"/>
<path d="M180.444 297.968C171.513 295.847 162.925 292.476 154.935 287.955L161.184 276.911C168.135 280.844 175.606 283.777 183.376 285.622L180.444 297.968Z" fill="#FC82BE"/>
<path d="M275.146 203C275.146 242.845 242.845 275.146 203 275.146C163.155 275.146 130.854 242.845 130.854 203C130.854 163.155 163.155 130.854 203 130.854C242.845 130.854 275.146 163.155 275.146 203ZM143.479 203C143.479 235.872 170.128 262.521 203 262.521C235.873 262.521 262.521 235.872 262.521 203C262.521 170.128 235.873 143.479 203 143.479C170.128 143.479 143.479 170.128 143.479 203Z" fill="#475569" fill-opacity="0.45"/>
<path d="M164.793 264.199C156.757 259.182 149.787 252.631 144.282 244.92C138.777 237.209 134.845 228.489 132.709 219.258L145.01 216.413C146.772 224.028 150.016 231.222 154.557 237.584C159.099 243.945 164.849 249.35 171.48 253.489L164.793 264.199Z" fill="#FBCF84"/>
<path d="M249.683 203C249.683 228.782 228.782 249.683 203 249.683C177.218 249.683 156.317 228.782 156.317 203C156.317 177.218 177.218 156.317 203 156.317C228.782 156.317 249.683 177.218 249.683 203ZM168.922 203C168.922 221.821 184.179 237.079 203 237.079C221.821 237.079 237.079 221.821 237.079 203C237.079 184.179 221.821 168.921 203 168.921C184.179 168.921 168.922 184.179 168.922 203Z" fill="#475569" fill-opacity="0.45"/>
<path d="M156.721 209.131C155.74 201.721 156.552 194.183 159.09 187.152C161.627 180.121 165.816 173.802 171.304 168.726L179.862 177.98C175.856 181.685 172.798 186.298 170.945 191.431C169.093 196.563 168.5 202.066 169.217 207.476L156.721 209.131Z" fill="#9FFD8E"/>
<path d="M225 203C225 215.15 215.15 225 203 225C190.85 225 181 215.15 181 203C181 190.85 190.85 181 203 181C215.15 181 225 190.85 225 203ZM188.26 203C188.26 211.141 194.859 217.74 203 217.74C211.141 217.74 217.74 211.141 217.74 203C217.74 194.859 211.141 188.26 203 188.26C194.859 188.26 188.26 194.859 188.26 203Z" fill="#475569" fill-opacity="0.45"/>
<path d="M189.013 186.019C192.909 182.81 197.789 181.038 202.835 181.001C207.882 180.963 212.788 182.661 216.731 185.811L212.121 191.583C209.502 189.49 206.243 188.362 202.891 188.387C199.539 188.412 196.297 189.589 193.71 191.72L189.013 186.019Z" fill="#C0FF4A"/>
<path d="M406 203C406 315.114 315.114 406 203 406C90.8862 406 0 315.114 0 203C0 90.8862 90.8862 0 203 0C315.114 0 406 90.8862 406 203ZM14.21 203C14.21 307.266 98.7342 391.79 203 391.79C307.266 391.79 391.79 307.266 391.79 203C391.79 98.7342 307.266 14.21 203 14.21C98.7342 14.21 14.21 98.7342 14.21 203Z" fill="#475569" fill-opacity="0.45"/>
<path d="M240.202 3.4379C279.078 10.685 314.99 29.1292 343.528 56.5048C372.066 83.8805 391.987 118.995 400.844 157.536C409.7 196.077 407.107 236.366 393.382 273.453C379.657 310.541 355.399 342.812 323.587 366.303L314.907 354.549C344.429 332.749 366.942 302.8 379.678 268.382C392.415 233.964 394.822 196.576 386.603 160.809C378.384 125.042 359.897 92.4546 333.413 67.0495C306.929 41.6443 273.602 24.5277 237.524 17.8023L240.202 3.4379Z" fill="#FF9D7D"/>
</svg>
